<svg viewBox="0 0 76 76" fill="none" xmlns="http://www.w3.org/2000/svg"><path d="M27.465 43.057V28.512H44.24v8.654c.253-.026.48-.052.733-.052.252 0 .48.026.732.052v-9.41a.745.745 0 0 0-.732-.756h-18.24a.745.745 0 0 0-.733.756v16.03c0 .418.328.757.733.757H38.53c-.026-.26-.05-.495-.05-.756 0-.26.024-.495.05-.756H27.465v.026Z" fill="#374151" fill-opacity=".26"/><path d="m41.18 38.392-3.031-5.005c-.152-.26-.53-.26-.708 0l-2.905 4.796-1.591-2.606c-.152-.261-.53-.261-.708 0l-3.132 5.16a.424.424 0 0 0 .353.652h9.5a6.492 6.492 0 0 1 2.223-2.997ZM30.727 31.98c0 .912.707 1.642 1.591 1.642s1.592-.73 1.592-1.642c0-.912-.708-1.642-1.592-1.642-.884 0-1.591.73-1.591 1.642Zm14.246 6.645c-2.78 0-5.028 2.32-5.028 5.187 0 2.867 2.249 5.188 5.028 5.188C47.752 49 50 46.68 50 43.811c0-2.867-2.248-5.187-5.027-5.187Zm-3.537 5.187c0-.73.227-1.433.58-2.007l4.902 5.057a3.52 3.52 0 0 1-1.945.6c-1.946.026-3.537-1.643-3.537-3.65Zm6.518 2.007-4.901-5.083a3.52 3.52 0 0 1 1.945-.6c1.97 0 3.562 1.643 3.562 3.676a4.226 4.226 0 0 1-.606 2.007Z" fill="#374151" fill-opacity=".26"/></svg>