<svg width="712" height="712" viewBox="0 0 712 712" fill="none" xmlns="http://www.w3.org/2000/svg">
<g clip-path="url(#clip0_3_54)">
<path d="M531.232 242.156L360.198 153.218L189.164 242.156L360.198 331.093L531.232 242.156Z" fill="#323232" stroke="#323232" stroke-miterlimit="1"/>
<path d="M377.681 537.854L531.232 447.143V259.639L463.554 301.948L377.681 353.391V537.854Z" fill="#323232" stroke="#323232" stroke-miterlimit="1"/>
<path d="M187.237 259.639L186.241 447.718L347.628 540.895L347.217 457.509L348.624 352.816L187.237 259.639Z" fill="#323232" stroke="#323232" stroke-miterlimit="1"/>
<path d="M617.535 236.021L636.132 203.116L460.052 120.912L441.157 152.357L617.535 236.021Z" fill="#323232" stroke="#323232" stroke-miterlimit="1"/>
<path d="M587.483 397.94L623.97 397.94L635.158 204.67L598.473 204.67L587.483 397.94Z" fill="#323232" stroke="#323232" stroke-miterlimit="1"/>
<path d="M106.628 463.394L85.2337 494.553L253.48 591.791L275.043 562.112L106.628 463.394Z" fill="#323232" stroke="#323232" stroke-miterlimit="1"/>
<path d="M142.035 300.687L110.108 279.403L86.3396 493.089L122.885 496.287L142.035 300.687Z" fill="#323232" stroke="#323232" stroke-miterlimit="1"/>
<path d="M39.735 495.567L18.3404 526.726L186.587 623.965L208.15 594.286L39.735 495.567Z" fill="#323232" stroke="#323232" stroke-miterlimit="1"/>
<path d="M75.1413 332.86L43.215 311.576L19.4464 525.263L55.992 528.46L75.1413 332.86Z" fill="#323232" stroke="#323232" stroke-miterlimit="1"/>
<path d="M677.439 201.054L696.036 168.149L519.955 85.9446L501.061 117.39L677.439 201.054Z" fill="#323232" stroke="#323232" stroke-miterlimit="1"/>
<path d="M647.387 362.973L683.874 362.973L695.062 169.703L658.377 169.703L647.387 362.973Z" fill="#323232" stroke="#323232" stroke-miterlimit="1"/>
</g>
<defs>
<clipPath id="clip0_3_54">
<rect width="712" height="712" fill="white"/>
</clipPath>
</defs>
</svg>
