<?xml version="1.0" standalone="no"?>
<!DOCTYPE svg PUBLIC "-//W3C//DTD SVG 20010904//EN"
 "http://www.w3.org/TR/2001/REC-SVG-20010904/DTD/svg10.dtd">
<svg version="1.0" xmlns="http://www.w3.org/2000/svg"
 width="700.000000pt" height="700.000000pt" viewBox="0 0 700.000000 700.000000"
 preserveAspectRatio="xMidYMid meet">
<metadata>
Created by potrace 1.14, written by Peter Selinger 2001-2017
</metadata>
<g transform="translate(0.000000,700.000000) scale(0.100000,-0.100000)"
fill="#000000" stroke="none">
<path d="M5096 6137 c-8 -12 -51 -83 -95 -157 l-81 -135 103 -50 c56 -27 144
-69 195 -93 51 -24 147 -69 215 -102 67 -32 221 -105 342 -162 713 -337 683
-322 679 -343 -1 -11 -5 -76 -9 -145 -3 -69 -7 -152 -10 -185 -2 -33 -6 -109
-9 -170 -4 -60 -8 -146 -11 -190 -8 -126 -14 -230 -21 -365 -3 -69 -8 -143 -9
-165 -6 -74 -17 -319 -19 -384 l-1 -64 173 -1 c96 -1 177 1 182 4 8 5 14 80
25 290 3 58 8 137 10 175 3 39 7 113 10 165 3 52 7 131 10 175 8 119 16 269
30 515 3 52 7 129 10 170 2 41 7 127 10 190 8 152 14 220 21 231 3 5 -24 22
-60 39 -111 51 -187 86 -281 130 -100 47 -79 37 -610 285 -209 98 -405 189
-435 203 -30 13 -111 52 -180 84 -175 84 -167 81 -184 55z"/>
<path d="M4445 5693 c-39 -65 -80 -135 -92 -156 l-23 -38 93 -43 c97 -46 185
-87 382 -181 223 -107 330 -157 400 -190 39 -18 120 -56 180 -85 61 -29 153
-72 205 -97 292 -138 281 -131 276 -161 -3 -15 -8 -88 -11 -162 -3 -74 -8
-160 -10 -190 -3 -30 -7 -102 -10 -160 -11 -231 -15 -308 -20 -370 -3 -36 -7
-110 -10 -165 -3 -55 -7 -134 -10 -175 -2 -41 -7 -124 -10 -185 -3 -60 -8
-142 -11 -181 l-5 -72 185 0 186 1 1 41 c0 22 2 48 3 56 2 8 7 80 10 160 4 80
9 161 11 180 1 19 6 94 9 165 4 72 9 153 11 180 3 28 7 106 10 175 3 69 8 148
10 175 2 28 7 102 10 165 3 63 7 147 10 185 3 39 7 115 10 170 10 175 15 238
20 255 4 13 -86 58 -442 225 -247 115 -493 230 -548 255 -55 26 -129 61 -165
77 -36 17 -177 83 -313 147 -136 64 -253 116 -260 116 -7 0 -44 -53 -82 -117z"/>
<path d="M3485 5471 c-27 -15 -126 -67 -220 -116 -93 -48 -219 -113 -280 -145
-60 -32 -162 -84 -225 -117 -63 -33 -171 -90 -240 -126 -148 -77 -461 -240
-577 -299 -46 -24 -83 -45 -83 -49 0 -5 48 -31 335 -179 77 -40 176 -92 220
-115 44 -23 148 -77 230 -120 83 -43 200 -104 260 -135 61 -32 178 -92 260
-135 83 -43 201 -104 263 -137 l113 -59 177 92 c294 153 412 214 532 276 63
33 201 105 305 159 105 54 240 124 300 156 61 32 169 88 242 125 73 37 129 71
125 75 -9 8 -61 35 -542 286 -69 35 -179 93 -245 127 -66 35 -178 93 -250 130
-156 81 -333 173 -512 266 -72 38 -133 69 -135 68 -2 0 -25 -13 -53 -28z"/>
<path d="M1839 4448 c-3 -6 -7 -555 -9 -1182 -3 -564 -1 -670 11 -677 24 -14
791 -460 839 -487 25 -14 199 -114 388 -224 189 -109 346 -198 350 -198 4 0 7
418 7 930 l0 929 -145 84 c-254 146 -549 316 -745 430 -104 61 -219 127 -255
147 -36 20 -147 84 -248 143 -173 101 -190 111 -193 105z"/>
<path d="M5195 4436 c-11 -6 -51 -32 -90 -56 -38 -25 -78 -49 -87 -55 -10 -5
-100 -62 -200 -125 -101 -63 -390 -239 -643 -391 l-460 -276 -3 -912 c-1 -501
0 -911 3 -911 5 0 557 325 678 399 37 22 69 41 72 41 3 0 28 15 57 33 29 19
60 37 68 40 8 4 29 16 45 27 17 10 63 38 104 62 105 61 107 62 309 182 l182
108 0 924 c0 508 -3 924 -7 923 -5 -1 -17 -6 -28 -13z"/>
<path d="M1079 4248 c-2 -13 -2 -19 -13 -103 -3 -27 -8 -72 -11 -100 -3 -27
-7 -61 -10 -75 -2 -14 -7 -59 -11 -100 -3 -41 -7 -82 -9 -90 -2 -8 -6 -49 -10
-90 -4 -41 -9 -83 -11 -93 -2 -10 -6 -48 -9 -85 -4 -37 -8 -78 -10 -92 -11
-74 -26 -222 -24 -237 1 -10 -1 -25 -4 -33 -3 -8 -8 -42 -11 -75 -4 -33 -13
-121 -21 -195 -9 -74 -18 -155 -20 -180 -3 -25 -9 -81 -15 -125 -5 -44 -12
-111 -16 -150 -3 -38 -8 -78 -10 -89 -2 -10 -6 -51 -10 -90 -4 -39 -10 -80
-14 -91 -7 -18 50 -53 537 -335 300 -173 566 -327 592 -341 134 -76 487 -282
496 -290 19 -18 33 -7 96 78 68 94 130 181 142 199 6 10 -65 57 -178 119 -23
13 -250 146 -705 413 -173 101 -369 216 -435 255 -66 38 -127 76 -135 83 -14
12 -15 27 -4 126 6 62 15 145 18 183 9 98 16 164 21 205 3 19 7 67 10 105 4
39 8 86 10 105 2 19 7 64 10 100 3 36 8 81 10 100 3 19 7 64 10 100 3 36 7 81
10 100 2 19 7 73 11 120 3 47 8 92 9 100 2 9 6 47 9 85 4 39 8 86 11 105 2 19
7 67 10 106 l7 71 -148 99 c-186 125 -174 118 -175 102z"/>
<path d="M416 3903 c-3 -21 -8 -65 -11 -98 -3 -33 -8 -71 -10 -85 -2 -14 -6
-56 -10 -95 -3 -38 -8 -81 -10 -95 -2 -14 -7 -50 -10 -80 -3 -30 -7 -71 -9
-90 -3 -19 -7 -62 -10 -95 -4 -33 -8 -71 -11 -85 -2 -14 -7 -55 -10 -91 -3
-36 -7 -76 -10 -90 -2 -13 -6 -54 -10 -91 -3 -37 -8 -77 -10 -90 -2 -13 -6
-50 -9 -83 -4 -33 -8 -78 -11 -100 -2 -22 -7 -62 -10 -90 -3 -27 -7 -63 -9
-80 -2 -16 -7 -59 -11 -95 -3 -36 -8 -81 -10 -100 -3 -19 -14 -118 -25 -220
-11 -102 -23 -197 -26 -211 -4 -19 0 -28 18 -37 31 -16 77 -42 243 -139 244
-141 768 -445 815 -471 25 -14 74 -42 109 -64 34 -21 64 -38 65 -38 2 0 92
-52 202 -115 109 -63 202 -111 205 -107 4 4 53 70 108 146 81 111 99 142 89
151 -10 10 -314 190 -403 240 -17 9 -51 29 -145 85 -109 64 -245 144 -285 165
-27 15 -57 34 -66 41 -8 8 -18 14 -22 14 -5 0 -95 52 -207 120 -8 4 -86 50
-173 101 l-159 92 7 76 c3 42 8 92 10 111 2 19 7 64 10 100 5 58 17 176 30
295 2 22 7 74 11 115 3 41 8 89 10 105 1 17 6 64 9 105 3 41 8 86 10 100 2 14
9 79 15 145 6 66 13 136 15 155 12 99 20 186 29 315 l7 90 -152 100 c-84 55
-156 101 -160 103 -4 2 -10 -14 -13 -35z"/>
</g>
</svg>
