<svg width="93" height="32" viewBox="0 0 93 32" fill="none" xmlns="http://www.w3.org/2000/svg">
<path d="M36.0093 20.7445C38.6142 20.7445 40.4494 19.3437 40.4494 17.0508C40.4494 14.5475 38.387 13.8995 36.4493 13.2907C34.5965 12.7307 34.1236 12.3307 34.1236 11.5755C34.1236 10.8755 34.7189 10.3498 35.7325 10.3498C36.9741 10.3498 37.6381 10.9979 38.0749 11.9259L40.103 10.7523C39.2814 9.03301 37.7397 8.00018 35.7293 8.00018C33.6316 8.00018 31.7084 9.33062 31.7084 11.6411C31.7084 13.9699 33.5268 14.7612 35.3973 15.3004C37.2157 15.8252 38.0373 16.1756 38.0373 17.086C38.0373 17.7684 37.5301 18.3812 36.0789 18.3812C34.5589 18.3812 33.7012 17.646 33.2644 16.5076L31.2012 17.7156C31.8652 19.5365 33.5092 20.7445 36.0093 20.7445Z" fill="white"/>
<path d="M46.1315 11.501C44.8515 11.501 43.9291 11.9738 43.2995 12.7811V11.7466H41.041V24.0005H43.2963V19.4668C43.9259 20.2717 44.8523 20.7469 46.1283 20.7469C48.4708 20.7469 50.394 18.7332 50.394 16.1252C50.394 13.5171 48.474 11.501 46.1315 11.501ZM45.7123 18.5916C44.3307 18.5916 43.2995 17.5932 43.2995 16.1228C43.2995 14.6523 44.3307 13.6547 45.7123 13.6547C47.1108 13.6547 48.142 14.6523 48.142 16.1228C48.142 17.5932 47.1108 18.5916 45.7123 18.5916Z" fill="white"/>
<path d="M55.9734 11.5011C54.8022 11.5011 53.8934 11.9387 53.3685 12.7267V8.24658H51.1133V20.4997H53.3685V15.7732C53.3685 14.2531 54.1902 13.6019 55.2886 13.6019C56.3022 13.6019 57.019 14.2147 57.019 15.4052V20.4997H59.2807V15.1252C59.2807 12.8003 57.8262 11.5011 55.9734 11.5011Z" fill="white"/>
<path d="M62.2351 17.0508H68.8256C68.8827 16.7447 68.9122 16.4341 68.9136 16.1228C68.9136 13.5499 67.0776 11.501 64.4903 11.501C61.7454 11.501 59.875 13.5147 59.875 16.1228C59.875 18.7308 61.7278 20.7445 64.6647 20.7445C66.3448 20.7445 67.6544 20.0621 68.476 18.8716L66.6584 17.8212C66.2736 18.3284 65.5743 18.6964 64.6999 18.6964C63.5111 18.6964 62.5495 18.206 62.2351 17.0508ZM62.1999 15.3003C62.4623 14.1803 63.2839 13.5323 64.4903 13.5323C65.4343 13.5323 66.3784 14.0395 66.6584 15.3003H62.1999Z" fill="white"/>
<path d="M71.8705 13.2523V11.7467H69.6152V20.4997H71.8705V16.3156C71.8705 14.4755 73.3569 13.9523 74.5282 14.0923V11.5715C73.4265 11.5715 72.3225 12.0619 71.8705 13.2523Z" fill="white"/>
<path d="M79.293 20.7445C81.8627 20.7445 83.926 18.7308 83.926 16.1228C83.926 13.5147 81.8627 11.501 79.293 11.501C76.7234 11.501 74.6777 13.5147 74.6777 16.1228C74.6777 18.7308 76.7226 20.7445 79.293 20.7445ZM79.293 18.5388C77.9642 18.5388 76.933 17.5412 76.933 16.1228C76.933 14.7043 77.9642 13.7067 79.293 13.7067C80.6387 13.7067 81.6707 14.7051 81.6707 16.1228C81.6707 17.5404 80.6427 18.5388 79.293 18.5388Z" fill="white"/>
<path d="M89.4976 11.501C88.3264 11.501 87.4176 11.9386 86.892 12.7267V11.7466H84.6367V20.4997H86.892V15.7731C86.892 14.2531 87.7144 13.6019 88.812 13.6019C89.8265 13.6019 90.5433 14.2147 90.5433 15.4051V20.4997H92.8017V15.1251C92.8017 12.8003 91.3505 11.501 89.4976 11.501Z" fill="white"/>
<path d="M20.4293 0.461612V6.62176C20.4292 6.78152 20.3879 6.93854 20.3094 7.07769C20.2309 7.21684 20.1179 7.33342 19.9813 7.41618L19.9429 7.43859L18.5029 8.26821L10.1203 13.0891L9.10263 13.6739C9.08542 13.6815 9.06906 13.6909 9.05383 13.7019C8.99046 13.7444 8.93854 13.8019 8.90263 13.8692C8.86673 13.9365 8.84795 14.0117 8.84795 14.088C8.84795 14.1642 8.86673 14.2394 8.90263 14.3067C8.93854 14.374 8.99046 14.4315 9.05383 14.474L9.09223 14.4964L10.2403 15.162L14.1604 17.418L14.23 17.4588C14.2913 17.5013 14.3415 17.558 14.3762 17.6241C14.4108 17.6903 14.4289 17.7638 14.4289 17.8384C14.4289 17.9131 14.4108 17.9866 14.3762 18.0527C14.3415 18.1189 14.2913 18.1756 14.23 18.2181L14.162 18.2565L6.99937 22.383L6.95937 22.4062C6.8238 22.4805 6.67159 22.5193 6.51696 22.519C6.37853 22.5185 6.24192 22.4873 6.11695 22.4278L6.07695 22.407L6.01615 22.371L1.86245 19.9829L0.487213 19.1917C0.474413 19.1853 0.461612 19.1773 0.448012 19.1693C0.315187 19.0882 0.205085 18.9748 0.128004 18.8397C0.0442891 18.6997 5.5594e-05 18.5396 8.19823e-07 18.3765V11.9483C-0.000209087 11.7908 0.0398927 11.6358 0.116491 11.4982C0.193089 11.3605 0.303635 11.2447 0.437612 11.1619C0.440683 11.159 0.444192 11.1565 0.448012 11.1547C0.463133 11.1451 0.478905 11.1365 0.495213 11.1291L0.501613 11.1243L1.86165 10.3419L6.45136 7.70179L11.9827 4.52011L19.7045 0.0800027C19.7166 0.071479 19.7295 0.063986 19.7429 0.0576021C19.8106 0.0198008 19.8869 -2.91412e-05 19.9645 6.89731e-07C20.0255 -0.000104461 20.086 0.0118142 20.1424 0.035076C20.1989 0.0583379 20.2502 0.0924875 20.2934 0.135575C20.3366 0.178662 20.371 0.229844 20.3944 0.286197C20.4179 0.342551 20.43 0.402972 20.4301 0.464012L20.4293 0.461612Z" fill="#01ABFF"/>
<path d="M26.8805 13.6243V20.0525C26.8803 20.212 26.839 20.3688 26.7605 20.5077C26.682 20.6466 26.569 20.7629 26.4325 20.8453L26.3933 20.8677L25.018 21.6597L23.2804 22.6598L20.4307 24.299L14.8978 27.4807L7.17759 31.9208C7.16525 31.929 7.15243 31.9365 7.13919 31.9432C7.07112 31.9808 6.99455 32.0004 6.91678 32C6.85574 32.0001 6.79528 31.9882 6.73885 31.9649C6.68241 31.9417 6.63111 31.9075 6.58788 31.8644C6.54464 31.8213 6.51032 31.7702 6.48686 31.7138C6.4634 31.6574 6.45128 31.597 6.45117 31.536V25.3758C6.45103 25.2162 6.49222 25.0593 6.57073 24.9204C6.64924 24.7815 6.7624 24.6652 6.89918 24.583C6.91758 24.571 6.93758 24.5606 6.95598 24.551L8.38002 23.731L16.7602 18.9101L17.7643 18.3325L17.8291 18.2957L17.8355 18.2917C17.8969 18.249 17.9471 18.192 17.9818 18.1257C18.0165 18.0594 18.0346 17.9857 18.0347 17.9108C18.034 17.8348 18.015 17.76 17.9792 17.6928C17.9434 17.6257 17.8919 17.5682 17.8291 17.5252C17.8142 17.5154 17.7987 17.5065 17.7827 17.4988L16.6402 16.838L12.7201 14.5812L12.6449 14.5372C12.585 14.4946 12.5361 14.4382 12.5024 14.3729C12.4687 14.3076 12.4511 14.2351 12.4511 14.1616C12.4511 14.088 12.4687 14.0156 12.5024 13.9502C12.5361 13.8849 12.585 13.8285 12.6449 13.7859L12.7249 13.7411C12.7287 13.7385 12.7327 13.7364 12.7369 13.7347L19.8827 9.62264L19.9387 9.59064C20.0719 9.52103 20.22 9.48468 20.3703 9.48468C20.5206 9.48468 20.6687 9.52103 20.8019 9.59064L20.8627 9.62584L25.0276 12.0211L26.4029 12.8131C26.4162 12.8197 26.429 12.8272 26.4413 12.8355C26.5742 12.9161 26.6843 13.0293 26.7613 13.1643C26.8443 13.3048 26.8877 13.4652 26.8869 13.6283L26.8805 13.6243Z" fill="#0057FF"/>
</svg>
